<?xml version="1.0" encoding="UTF-8"?>
<svg width="181.04mm" height="16.612mm" version="1.1" viewBox="0 0 181.04 16.612" xmlns="http://www.w3.org/2000/svg" xmlns:cc="http://creativecommons.org/ns#" xmlns:dc="http://purl.org/dc/elements/1.1/" xmlns:rdf="http://www.w3.org/1999/02/22-rdf-syntax-ns#">
 <metadata>
  <rdf:RDF>
   <cc:Work rdf:about="">
    <dc:format>image/svg+xml</dc:format>
    <dc:type rdf:resource="http://purl.org/dc/dcmitype/StillImage"/>
    <dc:title/>
   </cc:Work>
  </rdf:RDF>
 </metadata>
 <g transform="translate(-14.556 -77.873)" stroke-width=".26458">
  <g transform="translate(170.85 157.99)" fill="#fff" aria-label="Microcks.io">
   <path d="m-81.182-63.738h-2.3368l-0.3302-4.953-0.762-7.366h-0.1778l-4.191 10.516h-2.0828l-3.8862-10.516h-0.2286l-0.762 7.1374-0.4064 5.1816h-2.2098l1.7018-16.307h2.9972l0.762 2.4384 3.1242 8.6614h0.2032l3.302-8.7376 0.762-2.3622h2.9718z"/>
   <path d="m-75.315-67.777 0.1016 4.0386h-2.4384l0.1016-3.81-0.1016-8.9154h2.4638z"/>
   <path d="m-65.996-76.616q2.0828 0 3.6322 0.8128l-0.4572 2.159-0.2286 0.0762q-0.635-0.4826-1.4732-0.762-0.8128-0.2794-1.7018-0.2794-3.5052 0-3.5052 4.3688 0 2.286 0.9144 3.4798 0.9144 1.1684 2.667 1.1684 0.8636 0 1.7526-0.2794 0.889-0.2794 1.5748-0.762l0.254 0.127-0.2032 2.159q-1.7018 0.7874-3.5052 0.7874-2.921 0-4.4704-1.6764t-1.5494-4.7752q0-3.175 1.6256-4.8768 1.651-1.7272 4.6736-1.7272z"/>
   <path d="m-52.966-68.818q1.4732 2.2098 3.3274 4.4958l-0.0254 0.3048q-1.3208 0.381-2.3114 0.4572l-0.381-0.2286q-1.8542-2.9972-2.6162-4.3688l-2.2352 0.0254v0.3556l0.1016 4.0386h-2.4384l0.1016-3.81-0.1016-8.9154 4.826-0.0254q2.0574 0 3.175 0.9906 1.143 0.9652 1.143 2.7432 0 1.2446-0.6858 2.2606-0.6604 1.016-1.8796 1.6764zm-4.2164-1.27 2.2098 0.0762q2.0066-0.5842 2.0066-2.5146 0-1.0414-0.6096-1.524-0.6096-0.508-1.8542-0.5588l-1.6764 0.0508z"/>
   <path d="m-41.687-76.641q2.794 0 4.318 1.651 1.5494 1.6256 1.5494 4.5974 0 3.302-1.651 5.08-1.6256 1.778-4.6482 1.778-2.8194 0-4.3434-1.6764t-1.524-4.7498q0-3.2004 1.6256-4.9276 1.651-1.7526 4.6736-1.7526zm-0.2286 2.0066q-1.8288 0-2.6924 1.0414-0.8382 1.016-0.8382 3.3274 0 2.5654 0.8382 3.6576t2.667 1.0922q1.8542 0 2.7178-1.016 0.8636-1.0414 0.8636-3.3782 0-2.54-0.8382-3.6322t-2.7178-1.0922z"/>
   <path d="m-27.499-76.616q2.0828 0 3.6322 0.8128l-0.4572 2.159-0.2286 0.0762q-0.635-0.4826-1.4732-0.762-0.8128-0.2794-1.7018-0.2794-3.5052 0-3.5052 4.3688 0 2.286 0.9144 3.4798 0.9144 1.1684 2.667 1.1684 0.8636 0 1.7526-0.2794t1.5748-0.762l0.254 0.127-0.2032 2.159q-1.7018 0.7874-3.5052 0.7874-2.921 0-4.4704-1.6764t-1.5494-4.7752q0-3.175 1.6256-4.8768 1.651-1.7272 4.6736-1.7272z"/>
   <path d="m-16.018-70.495q2.413 3.1242 5.4102 6.1976l-0.0508 0.3556q-1.1938 0.3048-2.3876 0.4318l-0.3556-0.1524q-3.175-3.81-5.2324-6.6802v-0.1778l4.0894-4.7498 0.8128-1.1938 2.794-0.0254zm-2.6924 2.7178 0.1016 4.0386h-2.4384l0.1016-3.81-0.1016-8.9154h2.4638z"/>
   <path d="m-4.1589-76.616q1.6256 0 3.2512 0.635l-0.381 2.3114-0.381 0.0762q-1.4732-1.1684-2.794-1.1684-0.9398 0-1.4986 0.4826-0.5334 0.4826-0.5334 1.1176t0.5588 1.0668q0.5842 0.4064 1.8034 0.9144 1.143 0.4826 1.8288 0.9144 0.7112 0.4064 1.2192 1.0922 0.508 0.6858 0.508 1.7018 0 1.0414-0.5588 1.9304-0.5334 0.889-1.6256 1.4478-1.0668 0.5334-2.5908 0.5334-0.9144 0-1.9304-0.2032t-1.9558-0.6096l0.3302-2.4638 0.2794-0.1524q0.7366 0.7366 1.7272 1.1684 1.016 0.4064 1.8542 0.4064 0.9144 0 1.4732-0.4572 0.5842-0.4826 0.5842-1.1684t-0.5842-1.0922q-0.5842-0.4318-1.8034-0.9398-1.0922-0.4826-1.8034-0.889-0.7112-0.4318-1.2192-1.1176-0.4826-0.7112-0.4826-1.7272 0-1.0668 0.5588-1.9304 0.5842-0.8636 1.651-1.3716 1.0922-0.508 2.5146-0.508z"/>
   <path d="m2.2637-66.481q0.635 0 0.9906 0.381 0.3556 0.3556 0.3556 1.016 0 0.6858-0.381 1.0922t-1.0414 0.4064-1.0414-0.381q-0.3556-0.381-0.3556-1.0414t0.381-1.0668q0.4064-0.4064 1.0922-0.4064z"/>
   <path d="m9.5666-67.777 0.1016 4.0386h-2.4384l0.1016-3.81-0.1016-8.9154h2.4638z"/>
   <path d="m18.886-76.641q2.794 0 4.318 1.651 1.5494 1.6256 1.5494 4.5974 0 3.302-1.651 5.08-1.6256 1.778-4.6482 1.778-2.8194 0-4.3434-1.6764t-1.524-4.7498q0-3.2004 1.6256-4.9276 1.651-1.7526 4.6736-1.7526zm-0.2286 2.0066q-1.8288 0-2.6924 1.0414-0.8382 1.016-0.8382 3.3274 0 2.5654 0.8382 3.6576t2.667 1.0922q1.8542 0 2.7178-1.016 0.8636-1.0414 0.8636-3.3782 0-2.54-0.8382-3.6322t-2.7178-1.0922z"/>
  </g>
  <g transform="translate(170.85 157.99)" fill="#d5dff3" aria-label="HUB">
   <path d="m-142.75-68.92 0.1016 5.1816h-3.429l0.1524-4.8768-0.0254-1.905-3.683-0.0254-3.3274 0.0508-0.0254 1.5748 0.127 5.1816h-3.429l0.1778-4.8768-0.1778-11.481h3.4798l-0.1016 6.7564 3.5052 0.0508 3.429-0.0508-0.1016-6.7564h3.5052z"/>
   <path d="m-126.16-71.79-0.0254 2.159q0.0254 2.921-1.7018 4.5212t-4.953 1.6002q-3.0988 0-4.7244-1.5494t-1.5494-4.445l0.0254-2.3622-0.0762-8.2296h3.4544l-0.1778 10.135q-0.0254 1.8542 0.7874 2.7432t2.4638 0.889q3.302 0 3.2766-3.4544l-0.1778-10.312h3.5052z"/>
   <path d="m-113.87-72.222q1.6764 0.4064 2.4638 1.3716 0.8128 0.9398 0.8128 2.4892 0 4.7498-7.4422 4.7498-2.1844 0-4.4704-0.127l0.1778-4.8768-0.1778-11.481 5.8166-0.0254q2.5146 0 3.9116 1.0668 1.397 1.0414 1.397 3.0226 0 1.3208-0.6604 2.3114-0.635 0.9906-1.8288 1.4986zm-1.0414-3.3528q0-1.1176-0.6604-1.5748-0.6604-0.4826-2.3114-0.4826h-1.2446l-0.0762 4.445 2.3876 0.0762q0.9652-0.254 1.4224-0.8382 0.4826-0.5842 0.4826-1.6256zm-2.54 9.4996q1.6002 0 2.4638-0.635 0.889-0.635 0.889-1.8288 0-1.8034-2.3368-2.2352l-2.8194 0.0508-0.0254 1.8034 0.0762 2.7432q0.889 0.1016 1.7526 0.1016z"/>
  </g>
 </g>
</svg>
