<?xml version="1.0" encoding="UTF-8"?>
<svg width="104.99mm" height="50.889mm" version="1.1" viewBox="0 0 104.99 50.889" xmlns="http://www.w3.org/2000/svg" xmlns:cc="http://creativecommons.org/ns#" xmlns:dc="http://purl.org/dc/elements/1.1/" xmlns:rdf="http://www.w3.org/1999/02/22-rdf-syntax-ns#">
 <metadata>
  <rdf:RDF>
   <cc:Work rdf:about="">
    <dc:format>image/svg+xml</dc:format>
    <dc:type rdf:resource="http://purl.org/dc/dcmitype/StillImage"/>
    <dc:title/>
   </cc:Work>
  </rdf:RDF>
 </metadata>
 <g transform="translate(-17.078 -24.17)">
  <g stroke-width=".26458">
   <g fill="#363636" aria-label="Incomplete Mocks">
    <path d="m34.53 32.417h-1.0266v-7.5829h1.0266z"/>
    <path d="m36.41 32.417v-5.3604h0.56092q0.20108 0 0.254 0.19579l0.07408 0.58208q0.34925-0.38629 0.77787-0.62442 0.43392-0.23812 1.0001-0.23812 0.43921 0 0.77258 0.14817 0.33866 0.14287 0.56092 0.41275 0.22754 0.26458 0.34396 0.64029t0.11642 0.83079v3.4131h-0.94191v-3.4131q0-0.60854-0.28046-0.94191-0.27517-0.33867-0.84666-0.33867-0.41804 0-0.78316 0.20108-0.35983 0.20108-0.66675 0.54504v3.9476z"/>
    <path d="m45.958 28.009q-0.04233 0.05821-0.08467 0.08996-0.04233 0.03175-0.12171 0.03175-0.07937 0-0.17462-0.0635-0.08996-0.06879-0.23283-0.14817-0.14288-0.07937-0.34925-0.14288-0.20108-0.06879-0.49742-0.06879-0.39158 0-0.69321 0.14288-0.30162 0.13758-0.508 0.40216-0.20108 0.26458-0.30692 0.64029-0.10054 0.37571-0.10054 0.84137 0 0.48683 0.11112 0.86783 0.11112 0.37571 0.31221 0.635 0.20108 0.254 0.48683 0.39158 0.29104 0.13229 0.65087 0.13229 0.34396 0 0.56621-0.07937 0.22225-0.08467 0.37042-0.18521 0.14817-0.10054 0.24342-0.17992 0.09525-0.08467 0.1905-0.08467 0.12171 0 0.17992 0.08996l0.26458 0.34396q-0.34925 0.42862-0.87312 0.62971-0.52387 0.19579-1.106 0.19579-0.50271 0-0.93662-0.18521-0.42862-0.18521-0.74612-0.53446-0.3175-0.35454-0.50271-0.86783-0.17992-0.51329-0.17992-1.1695 0-0.59796 0.16404-1.106 0.16933-0.508 0.48683-0.87312 0.32279-0.37042 0.79375-0.57679 0.47096-0.20637 1.0795-0.20637 0.56092 0 0.99483 0.18521 0.43392 0.17992 0.76729 0.51329z"/>
    <path d="m49.411 26.972q0.58737 0 1.0583 0.19579 0.47625 0.19579 0.80433 0.55562 0.33337 0.35983 0.508 0.87312 0.17992 0.508 0.17992 1.1377 0 0.635-0.17992 1.143-0.17462 0.508-0.508 0.86783-0.32808 0.35983-0.80433 0.55562-0.47096 0.1905-1.0583 0.1905t-1.0636-0.1905q-0.47096-0.19579-0.80433-0.55562t-0.51329-0.86783q-0.17992-0.508-0.17992-1.143 0-0.62971 0.17992-1.1377 0.17992-0.51329 0.51329-0.87312t0.80433-0.55562q0.47625-0.19579 1.0636-0.19579zm0 4.7837q0.79375 0 1.1853-0.52916 0.39158-0.53446 0.39158-1.487 0-0.95779-0.39158-1.4922-0.39158-0.53446-1.1853-0.53446-0.40217 0-0.6985 0.13758-0.29633 0.13758-0.49742 0.39687-0.19579 0.25929-0.29633 0.64029-0.09525 0.37571-0.09525 0.85196 0 0.47625 0.09525 0.85196 0.10054 0.37571 0.29633 0.635 0.20108 0.254 0.49742 0.39158t0.6985 0.13758z"/>
    <path d="m53.133 32.417v-5.3604h0.56092q0.20108 0 0.254 0.19579l0.06879 0.55033q0.29633-0.36512 0.66146-0.59796 0.37042-0.23283 0.85725-0.23283 0.54504 0 0.87841 0.30162 0.33867 0.30162 0.48683 0.81491 0.11112-0.29104 0.29104-0.50271 0.18521-0.21167 0.41275-0.34925 0.22754-0.13758 0.48154-0.20108 0.25929-0.0635 0.52387-0.0635 0.42333 0 0.75141 0.13758 0.33337 0.13229 0.56092 0.39158 0.23283 0.25929 0.35454 0.64029 0.12171 0.37571 0.12171 0.86254v3.4131h-0.94191v-3.4131q0-0.62971-0.27517-0.9525-0.27517-0.32808-0.79904-0.32808-0.23283 0-0.4445 0.08467-0.20637 0.07938-0.36512 0.23812-0.15875 0.15875-0.254 0.40216-0.08996 0.23812-0.08996 0.55562v3.4131h-0.94191v-3.4131q0-0.64558-0.25929-0.96308t-0.75671-0.3175q-0.34925 0-0.65087 0.1905-0.29633 0.18521-0.54504 0.508v3.9952z"/>
    <path d="m61.814 34.232v-7.1755h0.56092q0.20108 0 0.254 0.19579l0.07937 0.635q0.34396-0.41804 0.78316-0.67204 0.4445-0.254 1.0213-0.254 0.46037 0 0.83608 0.17992 0.37571 0.17462 0.64029 0.52387 0.26458 0.34396 0.40746 0.85725 0.14288 0.51329 0.14288 1.18 0 0.59266-0.15875 1.106-0.15875 0.508-0.45508 0.8837-0.29633 0.37042-0.73025 0.58737-0.42862 0.21167-0.96837 0.21167-0.49742 0-0.85196-0.16404-0.34925-0.16404-0.61912-0.46566v2.3707zm2.3865-6.5087q-0.46037 0-0.80962 0.21167-0.34396 0.21167-0.635 0.59796v2.5929q0.25929 0.34925 0.56621 0.49212 0.31221 0.14288 0.69321 0.14288 0.74612 0 1.1483-0.53446 0.40216-0.53446 0.40216-1.524 0-0.52387-0.09525-0.89958-0.08996-0.37571-0.26458-0.61383-0.17462-0.24342-0.42862-0.35454-0.254-0.11112-0.57679-0.11112z"/>
    <path d="m68.712 24.622v7.7946h-0.94191v-7.7946z"/>
    <path d="m72.494 26.972q0.48154 0 0.889 0.16404 0.40746 0.15875 0.70379 0.46566 0.29633 0.30162 0.46037 0.75141 0.16933 0.4445 0.16933 1.016 0 0.22225-0.04762 0.29633-0.04763 0.07408-0.17992 0.07408h-3.5666q0.01058 0.508 0.13758 0.8837 0.127 0.37571 0.34925 0.62971 0.22225 0.24871 0.52916 0.37571 0.30692 0.12171 0.68792 0.12171 0.35454 0 0.60854-0.07937 0.25929-0.08467 0.4445-0.17992 0.18521-0.09525 0.30692-0.17462 0.127-0.08467 0.21696-0.08467 0.11642 0 0.17992 0.08996l0.26458 0.34396q-0.17462 0.21167-0.41804 0.37042-0.24342 0.15346-0.52387 0.254-0.27516 0.10054-0.5715 0.14817-0.29633 0.05292-0.58737 0.05292-0.55562 0-1.0266-0.18521-0.46566-0.1905-0.80962-0.55033-0.33867-0.36512-0.52916-0.89958-0.1905-0.53446-0.1905-1.2277 0-0.56092 0.16933-1.0477 0.17462-0.48683 0.49742-0.84137 0.32279-0.35983 0.78846-0.56092 0.46566-0.20637 1.0477-0.20637zm0.02117 0.69321q-0.68262 0-1.0742 0.39687-0.39158 0.39158-0.48683 1.0901h2.9157q0-0.32808-0.08996-0.59796-0.08996-0.27517-0.26458-0.47096-0.17462-0.20108-0.42862-0.30692-0.24871-0.11112-0.5715-0.11112z"/>
    <path d="m77.536 32.501q-0.635 0-0.97896-0.35454-0.33867-0.35454-0.33867-1.0213v-3.2808h-0.64558q-0.08467 0-0.14287-0.04763-0.058209-0.052911-0.058209-0.15874v-0.37571l0.87841-0.11112 0.21696-1.6563q0.01058-0.07937 0.06879-0.127 0.05821-0.05292 0.14817-0.05292h0.47625v1.8468h1.5346v0.68262h-1.5346v3.2173q0 0.33867 0.16404 0.50271t0.42333 0.16404q0.14817 0 0.254-0.03704 0.11112-0.04233 0.1905-0.08996 0.07937-0.04763 0.13229-0.08467 0.05821-0.04233 0.10054-0.04233 0.07408 0 0.13229 0.08996l0.27516 0.44979q-0.24342 0.22754-0.58737 0.35983-0.34396 0.127-0.70908 0.127z"/>
    <path d="m81.982 26.972q0.48154 0 0.889 0.16404 0.40746 0.15875 0.70379 0.46566 0.29633 0.30162 0.46037 0.75141 0.16933 0.4445 0.16933 1.016 0 0.22225-0.04763 0.29633-0.04762 0.07408-0.17992 0.07408h-3.5666q0.01058 0.508 0.13758 0.8837 0.127 0.37571 0.34925 0.62971 0.22225 0.24871 0.52916 0.37571 0.30692 0.12171 0.68791 0.12171 0.35454 0 0.60854-0.07937 0.25929-0.08467 0.4445-0.17992 0.18521-0.09525 0.30692-0.17462 0.127-0.08467 0.21696-0.08467 0.11642 0 0.17992 0.08996l0.26458 0.34396q-0.17462 0.21167-0.41804 0.37042-0.24342 0.15346-0.52387 0.254-0.27517 0.10054-0.5715 0.14817-0.29633 0.05292-0.58737 0.05292-0.55562 0-1.0266-0.18521-0.46566-0.1905-0.80962-0.55033-0.33867-0.36512-0.52916-0.89958-0.1905-0.53446-0.1905-1.2277 0-0.56092 0.16933-1.0477 0.17462-0.48683 0.49742-0.84137 0.32279-0.35983 0.78846-0.56092 0.46566-0.20637 1.0477-0.20637zm0.02117 0.69321q-0.68262 0-1.0742 0.39687-0.39158 0.39158-0.48683 1.0901h2.9157q0-0.32808-0.08996-0.59796-0.08996-0.27517-0.26458-0.47096-0.17462-0.20108-0.42862-0.30692-0.24871-0.11112-0.5715-0.11112z"/>
    <path d="m91.325 29.676q0.07408 0.127 0.127 0.26987 0.05821 0.13758 0.11112 0.28046 0.05292-0.14817 0.11112-0.28046 0.05821-0.13758 0.13229-0.27517l2.5664-4.6619q0.06879-0.12171 0.14287-0.14817 0.07408-0.02646 0.21167-0.02646h0.75671v7.5829h-0.89958v-5.5721q0-0.11112 0.0053-0.23812 0.0053-0.127 0.01587-0.25929l-2.5982 4.7413q-0.13229 0.23812-0.37042 0.23812h-0.14817q-0.23812 0-0.37042-0.23812l-2.6564-4.7572q0.01587 0.13758 0.02117 0.26987 0.01058 0.13229 0.01058 0.24342v5.5721h-0.89958v-7.5829h0.75671q0.13758 0 0.21167 0.02646 0.07408 0.02646 0.14288 0.14817l2.6194 4.6672z"/>
    <path d="m99.351 26.972q0.58737 0 1.0583 0.19579 0.47625 0.19579 0.80433 0.55562 0.33337 0.35983 0.508 0.87312 0.17991 0.508 0.17991 1.1377 0 0.635-0.17991 1.143-0.17463 0.508-0.508 0.86783-0.32808 0.35983-0.80433 0.55562-0.47096 0.1905-1.0583 0.1905t-1.0636-0.1905q-0.47096-0.19579-0.80433-0.55562t-0.51329-0.86783q-0.17992-0.508-0.17992-1.143 0-0.62971 0.17992-1.1377 0.17992-0.51329 0.51329-0.87312t0.80433-0.55562q0.47625-0.19579 1.0636-0.19579zm0 4.7837q0.79375 0 1.1853-0.52916 0.39158-0.53446 0.39158-1.487 0-0.95779-0.39158-1.4922-0.39158-0.53446-1.1853-0.53446-0.40217 0-0.6985 0.13758-0.29633 0.13758-0.49742 0.39687-0.19579 0.25929-0.29633 0.64029-0.09525 0.37571-0.09525 0.85196 0 0.47625 0.09525 0.85196 0.10054 0.37571 0.29633 0.635 0.20108 0.254 0.49742 0.39158t0.6985 0.13758z"/>
    <path d="m106.73 28.009q-0.0423 0.05821-0.0847 0.08996-0.0423 0.03175-0.12171 0.03175-0.0794 0-0.17463-0.0635-0.09-0.06879-0.23283-0.14817-0.14287-0.07937-0.34925-0.14288-0.20108-0.06879-0.49741-0.06879-0.39158 0-0.69321 0.14288-0.30162 0.13758-0.508 0.40216-0.20108 0.26458-0.30691 0.64029-0.10054 0.37571-0.10054 0.84137 0 0.48683 0.11112 0.86783 0.11113 0.37571 0.31221 0.635 0.20108 0.254 0.48683 0.39158 0.29104 0.13229 0.65087 0.13229 0.34396 0 0.56621-0.07937 0.22225-0.08467 0.37042-0.18521 0.14816-0.10054 0.24341-0.17992 0.0952-0.08467 0.1905-0.08467 0.12171 0 0.17992 0.08996l0.26458 0.34396q-0.34925 0.42862-0.87312 0.62971-0.52388 0.19579-1.106 0.19579-0.5027 0-0.93662-0.18521-0.42862-0.18521-0.74612-0.53446-0.3175-0.35454-0.50271-0.86783-0.17992-0.51329-0.17992-1.1695 0-0.59796 0.16405-1.106 0.16933-0.508 0.48683-0.87312 0.32279-0.37042 0.79375-0.57679 0.47095-0.20637 1.0795-0.20637 0.56092 0 0.99483 0.18521 0.43392 0.17992 0.76729 0.51329z"/>
    <path d="m108.99 24.622v4.5879h0.24342q0.10583 0 0.17462-0.02646 0.0688-0.03175 0.15346-0.12171l1.6933-1.815q0.0794-0.08467 0.15875-0.13758 0.0794-0.05292 0.21166-0.05292h0.85725l-1.9738 2.1008q-0.0741 0.08996-0.14817 0.15875-0.0688 0.06879-0.15875 0.12171 0.0953 0.0635 0.16933 0.14817 0.0794 0.07937 0.14817 0.18521l2.0955 2.6458h-0.84666q-0.11642 0-0.20108-0.04233-0.0794-0.04763-0.15346-0.14287l-1.7621-2.196q-0.0794-0.11112-0.15875-0.14288-0.0794-0.03704-0.23812-0.03704h-0.26459v2.5612h-0.9472v-7.7946z"/>
    <path d="m116.62 27.94q-0.0635 0.11642-0.19579 0.11642-0.0794 0-0.17992-0.05821-0.10054-0.05821-0.2487-0.127-0.14288-0.07408-0.34396-0.13229-0.20108-0.0635-0.47625-0.0635-0.23812 0-0.42862 0.0635-0.1905 0.05821-0.32809 0.16404-0.13229 0.10583-0.20637 0.24871-0.0688 0.13758-0.0688 0.30162 0 0.20637 0.11641 0.34396 0.12171 0.13758 0.3175 0.23812t0.4445 0.17992q0.24871 0.07408 0.508 0.16404 0.26458 0.08467 0.51329 0.1905 0.24871 0.10583 0.4445 0.26458 0.19579 0.15875 0.31221 0.39158 0.1217 0.22754 0.1217 0.55033 0 0.37042-0.13229 0.68791-0.13229 0.31221-0.39158 0.54504-0.25929 0.22754-0.635 0.35983-0.3757 0.13229-0.86783 0.13229-0.56091 0-1.016-0.17992-0.45509-0.18521-0.77258-0.47096l0.22224-0.35983q0.0423-0.06879 0.10055-0.10583 0.0582-0.03704 0.15345-0.03704 0.0952 0 0.20109 0.07408 0.10583 0.07408 0.254 0.16404 0.15345 0.08996 0.36512 0.16404 0.21696 0.07408 0.53975 0.07408 0.27516 0 0.48154-0.06879 0.20637-0.07408 0.34395-0.19579 0.13759-0.12171 0.20109-0.28046 0.0688-0.15875 0.0688-0.33867 0-0.22225-0.12171-0.36512-0.11642-0.14817-0.31221-0.24871-0.19579-0.10583-0.44979-0.17992-0.2487-0.07938-0.51329-0.16404-0.25929-0.08467-0.51329-0.1905-0.2487-0.11112-0.4445-0.27517-0.19579-0.16404-0.31749-0.40216-0.11642-0.24342-0.11642-0.58737 0-0.30692 0.127-0.58737 0.127-0.28575 0.37041-0.49742 0.24342-0.21696 0.59796-0.34396 0.35454-0.127 0.80962-0.127 0.52917 0 0.94721 0.16933 0.42333 0.16404 0.73025 0.45508z"/>
   </g>
   <g fill="#b6b6b6" aria-label="Full Mocks">
    <path d="m37.797 46.189v0.83608h-3.6407v2.6511h3.1115v0.83608h-3.1115v3.2597h-1.0319v-7.5829z"/>
    <path d="m39.475 48.412v3.4184q0 0.60854 0.28046 0.94191 0.28046 0.33337 0.84666 0.33337 0.41275 0 0.77787-0.19579t0.67204-0.54504v-3.9529h0.94191v5.3604h-0.56092q-0.20108 0-0.254-0.19579l-0.07408-0.57679q-0.34925 0.38629-0.78316 0.62441-0.43392 0.23283-0.99483 0.23283-0.43921 0-0.77787-0.14288-0.33337-0.14817-0.56092-0.41275-0.22754-0.26458-0.34396-0.64029-0.11112-0.37571-0.11112-0.83079v-3.4184z"/>
    <path d="m45.599 45.978v7.7946h-0.94191v-7.7946z"/>
    <path d="m48.307 45.978v7.7946h-0.94191v-7.7946z"/>
    <path d="m55.892 51.031q0.07408 0.127 0.127 0.26987 0.05821 0.13758 0.11112 0.28046 0.05292-0.14817 0.11112-0.28046 0.05821-0.13758 0.13229-0.27517l2.5665-4.6619q0.06879-0.12171 0.14287-0.14817 0.07408-0.02646 0.21167-0.02646h0.75671v7.5829h-0.89958v-5.5721q0-0.11112 0.0053-0.23812t0.01588-0.25929l-2.5982 4.7413q-0.13229 0.23812-0.37042 0.23812h-0.14817q-0.23812 0-0.37042-0.23812l-2.6564-4.7572q0.01588 0.13758 0.02117 0.26987 0.01058 0.13229 0.01058 0.24342v5.5721h-0.8996v-7.5829h0.75671q0.13758 0 0.21167 0.02646 0.07408 0.02646 0.14288 0.14817l2.6194 4.6672z"/>
    <path d="m63.919 48.327q0.58737 0 1.0583 0.19579 0.47625 0.19579 0.80433 0.55562 0.33337 0.35983 0.508 0.87312 0.17992 0.508 0.17992 1.1377 0 0.635-0.17992 1.143-0.17462 0.508-0.508 0.86783-0.32808 0.35983-0.80433 0.55562-0.47096 0.1905-1.0583 0.1905t-1.0636-0.1905q-0.47096-0.19579-0.80433-0.55562t-0.51329-0.86783q-0.17992-0.508-0.17992-1.143 0-0.62971 0.17992-1.1377 0.17992-0.51329 0.51329-0.87312t0.80433-0.55562q0.47625-0.19579 1.0636-0.19579zm0 4.7837q0.79375 0 1.1853-0.52916 0.39158-0.53446 0.39158-1.487 0-0.95779-0.39158-1.4922-0.39158-0.53446-1.1853-0.53446-0.40217 0-0.6985 0.13758t-0.49742 0.39687q-0.19579 0.25929-0.29633 0.64029-0.09525 0.37571-0.09525 0.85196 0 0.47625 0.09525 0.85196 0.10054 0.37571 0.29633 0.635 0.20108 0.254 0.49742 0.39158 0.29633 0.13758 0.6985 0.13758z"/>
    <path d="m71.297 49.364q-0.04233 0.05821-0.08467 0.08996-0.04233 0.03175-0.12171 0.03175-0.07937 0-0.17462-0.0635-0.08996-0.06879-0.23283-0.14817-0.14287-0.07937-0.34925-0.14287-0.20108-0.06879-0.49742-0.06879-0.39158 0-0.69321 0.14288-0.30162 0.13758-0.508 0.40216-0.20108 0.26458-0.30692 0.64029-0.10054 0.37571-0.10054 0.84137 0 0.48683 0.11112 0.86783 0.11112 0.37571 0.31221 0.635 0.20108 0.254 0.48683 0.39158 0.29104 0.13229 0.65087 0.13229 0.34396 0 0.56621-0.07937 0.22225-0.08467 0.37042-0.18521 0.14817-0.10054 0.24342-0.17992 0.09525-0.08467 0.1905-0.08467 0.12171 0 0.17992 0.08996l0.26458 0.34396q-0.34925 0.42862-0.87312 0.62971-0.52387 0.19579-1.106 0.19579-0.50271 0-0.93662-0.18521-0.42862-0.18521-0.74612-0.53446-0.3175-0.35454-0.50271-0.86783-0.17992-0.51329-0.17992-1.1695 0-0.59796 0.16404-1.106 0.16933-0.508 0.48683-0.87312 0.32279-0.37042 0.79375-0.57679 0.47096-0.20637 1.0795-0.20637 0.56092 0 0.99483 0.18521 0.43392 0.17992 0.76729 0.51329z"/>
    <path d="m73.56 45.978v4.5879h0.24342q0.10583 0 0.17462-0.02646 0.06879-0.03175 0.15346-0.12171l1.6933-1.815q0.07937-0.08467 0.15875-0.13758 0.07938-0.05292 0.21167-0.05292h0.85725l-1.9738 2.1008q-0.07408 0.08996-0.14817 0.15875-0.06879 0.06879-0.15875 0.12171 0.09525 0.0635 0.16933 0.14817 0.07937 0.07937 0.14817 0.18521l2.0955 2.6458h-0.84666q-0.11642 0-0.20108-0.04233-0.07937-0.04762-0.15346-0.14287l-1.7621-2.196q-0.07937-0.11112-0.15875-0.14287-0.07937-0.03704-0.23812-0.03704h-0.26458v2.5612h-0.9472v-7.7946z"/>
    <path d="m81.19 49.296q-0.0635 0.11642-0.19579 0.11642-0.07937 0-0.17992-0.05821-0.10054-0.05821-0.24871-0.127-0.14288-0.07408-0.34396-0.13229-0.20108-0.0635-0.47625-0.0635-0.23812 0-0.42862 0.0635-0.1905 0.05821-0.32808 0.16404-0.13229 0.10583-0.20637 0.24871-0.06879 0.13758-0.06879 0.30162 0 0.20637 0.11642 0.34396 0.12171 0.13758 0.3175 0.23812 0.19579 0.10054 0.4445 0.17992 0.24871 0.07408 0.508 0.16404 0.26458 0.08467 0.51329 0.1905 0.24871 0.10583 0.4445 0.26458 0.19579 0.15875 0.31221 0.39158 0.12171 0.22754 0.12171 0.55033 0 0.37042-0.13229 0.68792-0.13229 0.31221-0.39158 0.54504-0.25929 0.22754-0.635 0.35983-0.37571 0.13229-0.86783 0.13229-0.56092 0-1.016-0.17992-0.45508-0.18521-0.77258-0.47096l0.22225-0.35983q0.04233-0.06879 0.10054-0.10583 0.05821-0.03704 0.15346-0.03704 0.09525 0 0.20108 0.07408 0.10583 0.07408 0.254 0.16404 0.15346 0.08996 0.36512 0.16404 0.21696 0.07408 0.53975 0.07408 0.27516 0 0.48154-0.06879 0.20637-0.07408 0.34396-0.19579 0.13758-0.12171 0.20108-0.28046 0.06879-0.15875 0.06879-0.33867 0-0.22225-0.12171-0.36512-0.11642-0.14817-0.31221-0.24871-0.19579-0.10583-0.44979-0.17992-0.24871-0.07937-0.51329-0.16404-0.25929-0.08467-0.51329-0.1905-0.24871-0.11112-0.4445-0.27517-0.19579-0.16404-0.3175-0.40216-0.11642-0.24342-0.11642-0.58737 0-0.30692 0.127-0.58737 0.127-0.28575 0.37042-0.49742 0.24342-0.21696 0.59796-0.34396 0.35454-0.127 0.80962-0.127 0.52916 0 0.9472 0.16933 0.42333 0.16404 0.73025 0.45508z"/>
   </g>
   <g fill="#b6b6b6" aria-label="Mocks + Assertions">
    <path d="m37.044 72.16q0.07408 0.127 0.127 0.26987 0.05821 0.13758 0.11112 0.28046 0.05292-0.14817 0.11112-0.28046 0.05821-0.13758 0.13229-0.27517l2.5664-4.6619q0.06879-0.12171 0.14287-0.14817 0.07408-0.02646 0.21167-0.02646h0.75671v7.5829h-0.89958v-5.5721q0-0.11112 0.0053-0.23812 0.0053-0.127 0.01588-0.25929l-2.5982 4.7413q-0.13229 0.23812-0.37042 0.23812h-0.14817q-0.23812 0-0.37042-0.23812l-2.6564-4.7572q0.01587 0.13758 0.02117 0.26987 0.01058 0.13229 0.01058 0.24342v5.5721h-0.89958v-7.5829h0.75671q0.13758 0 0.21167 0.02646 0.07408 0.02646 0.14288 0.14817l2.6194 4.6672z"/>
    <path d="m45.071 69.456q0.58737 0 1.0583 0.19579 0.47625 0.19579 0.80433 0.55562 0.33337 0.35983 0.508 0.87312 0.17992 0.508 0.17992 1.1377 0 0.635-0.17992 1.143-0.17462 0.508-0.508 0.86783-0.32808 0.35983-0.80433 0.55562-0.47096 0.1905-1.0583 0.1905t-1.0636-0.1905q-0.47096-0.19579-0.80433-0.55562-0.33337-0.35983-0.51329-0.86783-0.17992-0.508-0.17992-1.143 0-0.62971 0.17992-1.1377 0.17992-0.51329 0.51329-0.87312 0.33337-0.35983 0.80433-0.55562 0.47625-0.19579 1.0636-0.19579zm0 4.7837q0.79375 0 1.1853-0.52916 0.39158-0.53446 0.39158-1.487 0-0.95779-0.39158-1.4922-0.39158-0.53446-1.1853-0.53446-0.40216 0-0.6985 0.13758-0.29633 0.13758-0.49742 0.39687-0.19579 0.25929-0.29633 0.64029-0.09525 0.37571-0.09525 0.85196 0 0.47625 0.09525 0.85196 0.10054 0.37571 0.29633 0.635 0.20108 0.254 0.49742 0.39158 0.29633 0.13758 0.6985 0.13758z"/>
    <path d="m52.449 70.493q-0.04233 0.05821-0.08467 0.08996-0.04233 0.03175-0.12171 0.03175-0.07937 0-0.17462-0.0635-0.08996-0.06879-0.23283-0.14817-0.14287-0.07937-0.34925-0.14288-0.20108-0.06879-0.49742-0.06879-0.39158 0-0.69321 0.14287-0.30162 0.13758-0.508 0.40217-0.20108 0.26458-0.30692 0.64029-0.10054 0.37571-0.10054 0.84137 0 0.48683 0.11112 0.86783 0.11112 0.37571 0.31221 0.635 0.20108 0.254 0.48683 0.39158 0.29104 0.13229 0.65087 0.13229 0.34396 0 0.56621-0.07937 0.22225-0.08467 0.37042-0.18521 0.14817-0.10054 0.24342-0.17992 0.09525-0.08467 0.1905-0.08467 0.12171 0 0.17992 0.08996l0.26458 0.34396q-0.34925 0.42862-0.87312 0.62971-0.52387 0.19579-1.106 0.19579-0.50271 0-0.93662-0.18521-0.42862-0.18521-0.74612-0.53446-0.3175-0.35454-0.50271-0.86783-0.17992-0.51329-0.17992-1.1695 0-0.59796 0.16404-1.106 0.16933-0.508 0.48683-0.87312 0.32279-0.37042 0.79375-0.57679t1.0795-0.20637q0.56092 0 0.99483 0.18521 0.43392 0.17992 0.76729 0.51329z"/>
    <path d="m54.711 67.106v4.5879h0.24342q0.10583 0 0.17462-0.02646 0.06879-0.03175 0.15346-0.12171l1.6933-1.815q0.07938-0.08467 0.15875-0.13758 0.07937-0.05292 0.21167-0.05292h0.85725l-1.9738 2.1008q-0.07408 0.08996-0.14817 0.15875-0.06879 0.06879-0.15875 0.12171 0.09525 0.0635 0.16933 0.14817 0.07937 0.07937 0.14817 0.18521l2.0955 2.6458h-0.84666q-0.11642 0-0.20108-0.04233-0.07938-0.04762-0.15346-0.14288l-1.7621-2.196q-0.07937-0.11112-0.15875-0.14288-0.07937-0.03704-0.23812-0.03704h-0.26458v2.5612h-0.9472v-7.7946z"/>
    <path d="m62.341 70.424q-0.0635 0.11642-0.19579 0.11642-0.07938 0-0.17992-0.05821-0.10054-0.05821-0.24871-0.127-0.14288-0.07408-0.34396-0.13229-0.20108-0.0635-0.47625-0.0635-0.23812 0-0.42862 0.0635-0.1905 0.05821-0.32808 0.16404-0.13229 0.10583-0.20637 0.24871-0.06879 0.13758-0.06879 0.30162 0 0.20637 0.11642 0.34396 0.12171 0.13758 0.3175 0.23812t0.4445 0.17992q0.24871 0.07408 0.508 0.16404 0.26458 0.08467 0.51329 0.1905 0.24871 0.10583 0.4445 0.26458 0.19579 0.15875 0.31221 0.39158 0.12171 0.22754 0.12171 0.55033 0 0.37042-0.13229 0.68791-0.13229 0.31221-0.39158 0.54504-0.25929 0.22754-0.635 0.35983-0.37571 0.13229-0.86783 0.13229-0.56092 0-1.016-0.17992-0.45508-0.18521-0.77258-0.47096l0.22225-0.35983q0.04233-0.06879 0.10054-0.10583 0.05821-0.03704 0.15346-0.03704 0.09525 0 0.20108 0.07408 0.10583 0.07408 0.254 0.16404 0.15346 0.08996 0.36512 0.16404 0.21696 0.07408 0.53975 0.07408 0.27516 0 0.48154-0.06879 0.20637-0.07408 0.34396-0.19579 0.13758-0.12171 0.20108-0.28046 0.06879-0.15875 0.06879-0.33867 0-0.22225-0.12171-0.36512-0.11642-0.14817-0.31221-0.24871-0.19579-0.10583-0.44979-0.17992-0.24871-0.07937-0.51329-0.16404-0.25929-0.08467-0.51329-0.1905-0.24871-0.11112-0.4445-0.27517t-0.3175-0.40216q-0.11642-0.24342-0.11642-0.58737 0-0.30692 0.127-0.58737 0.127-0.28575 0.37042-0.49742 0.24342-0.21696 0.59796-0.34396 0.35454-0.127 0.80962-0.127 0.52916 0 0.9472 0.16933 0.42333 0.16404 0.73025 0.45508z"/>
    <path d="m68.58 68.731v2.2595h2.1537v0.71437h-2.1537v2.2754h-0.77258v-2.2754h-2.1431v-0.71437h2.1431v-2.2595z"/>
    <path d="m80.48 74.901h-0.79375q-0.13758 0-0.22225-0.06879-0.08467-0.06879-0.127-0.17462l-0.70908-1.8309h-3.4025l-0.70908 1.8309q-0.03704 0.09525-0.127 0.16933-0.08996 0.07408-0.22225 0.07408h-0.79375l3.0321-7.5829h1.0425zm-4.9689-2.8152h2.831l-1.1906-3.085q-0.11642-0.28575-0.22754-0.71437-0.05821 0.21696-0.11642 0.40216-0.05292 0.17992-0.10583 0.3175z"/>
    <path d="m84.355 70.424q-0.0635 0.11642-0.19579 0.11642-0.07937 0-0.17992-0.05821-0.10054-0.05821-0.24871-0.127-0.14287-0.07408-0.34396-0.13229-0.20108-0.0635-0.47625-0.0635-0.23812 0-0.42862 0.0635-0.1905 0.05821-0.32808 0.16404-0.13229 0.10583-0.20638 0.24871-0.06879 0.13758-0.06879 0.30162 0 0.20637 0.11642 0.34396 0.12171 0.13758 0.3175 0.23812t0.4445 0.17992q0.24871 0.07408 0.508 0.16404 0.26458 0.08467 0.51329 0.1905 0.24871 0.10583 0.4445 0.26458 0.19579 0.15875 0.31221 0.39158 0.12171 0.22754 0.12171 0.55033 0 0.37042-0.13229 0.68791-0.13229 0.31221-0.39158 0.54504-0.25929 0.22754-0.635 0.35983-0.37571 0.13229-0.86783 0.13229-0.56092 0-1.016-0.17992-0.45508-0.18521-0.77258-0.47096l0.22225-0.35983q0.04233-0.06879 0.10054-0.10583 0.05821-0.03704 0.15346-0.03704 0.09525 0 0.20108 0.07408t0.254 0.16404q0.15346 0.08996 0.36512 0.16404 0.21696 0.07408 0.53975 0.07408 0.27517 0 0.48154-0.06879 0.20638-0.07408 0.34396-0.19579 0.13758-0.12171 0.20108-0.28046 0.06879-0.15875 0.06879-0.33867 0-0.22225-0.12171-0.36512-0.11642-0.14817-0.31221-0.24871-0.19579-0.10583-0.44979-0.17992-0.24871-0.07937-0.51329-0.16404-0.25929-0.08467-0.51329-0.1905-0.24871-0.11112-0.4445-0.27517-0.19579-0.16404-0.3175-0.40216-0.11642-0.24342-0.11642-0.58737 0-0.30692 0.127-0.58737 0.127-0.28575 0.37042-0.49742 0.24342-0.21696 0.59796-0.34396 0.35454-0.127 0.80962-0.127 0.52916 0 0.9472 0.16933 0.42333 0.16404 0.73025 0.45508z"/>
    <path d="m88.944 70.424q-0.0635 0.11642-0.19579 0.11642-0.07937 0-0.17992-0.05821-0.10054-0.05821-0.24871-0.127-0.14287-0.07408-0.34396-0.13229-0.20108-0.0635-0.47625-0.0635-0.23812 0-0.42862 0.0635-0.1905 0.05821-0.32808 0.16404-0.13229 0.10583-0.20638 0.24871-0.06879 0.13758-0.06879 0.30162 0 0.20637 0.11642 0.34396 0.12171 0.13758 0.3175 0.23812t0.4445 0.17992q0.24871 0.07408 0.508 0.16404 0.26458 0.08467 0.51329 0.1905 0.24871 0.10583 0.4445 0.26458 0.19579 0.15875 0.31221 0.39158 0.12171 0.22754 0.12171 0.55033 0 0.37042-0.13229 0.68791-0.13229 0.31221-0.39158 0.54504-0.25929 0.22754-0.635 0.35983-0.37571 0.13229-0.86783 0.13229-0.56092 0-1.016-0.17992-0.45508-0.18521-0.77258-0.47096l0.22225-0.35983q0.04233-0.06879 0.10054-0.10583 0.05821-0.03704 0.15346-0.03704 0.09525 0 0.20108 0.07408t0.254 0.16404q0.15346 0.08996 0.36512 0.16404 0.21696 0.07408 0.53975 0.07408 0.27517 0 0.48154-0.06879 0.20638-0.07408 0.34396-0.19579 0.13758-0.12171 0.20108-0.28046 0.06879-0.15875 0.06879-0.33867 0-0.22225-0.12171-0.36512-0.11642-0.14817-0.31221-0.24871-0.19579-0.10583-0.44979-0.17992-0.24871-0.07937-0.51329-0.16404-0.25929-0.08467-0.51329-0.1905-0.24871-0.11112-0.4445-0.27517t-0.3175-0.40216q-0.11642-0.24342-0.11642-0.58737 0-0.30692 0.127-0.58737 0.127-0.28575 0.37042-0.49742 0.24342-0.21696 0.59796-0.34396 0.35454-0.127 0.80962-0.127 0.52916 0 0.9472 0.16933 0.42333 0.16404 0.73025 0.45508z"/>
    <path d="m92.586 69.456q0.48154 0 0.889 0.16404 0.40746 0.15875 0.70379 0.46566 0.29633 0.30162 0.46037 0.75141 0.16933 0.4445 0.16933 1.016 0 0.22225-0.04763 0.29633-0.04762 0.07408-0.17992 0.07408h-3.5666q0.01058 0.508 0.13758 0.88371 0.127 0.37571 0.34925 0.62971 0.22225 0.24871 0.52916 0.37571 0.30692 0.12171 0.68792 0.12171 0.35454 0 0.60854-0.07937 0.25929-0.08467 0.4445-0.17992 0.18521-0.09525 0.30692-0.17462 0.127-0.08467 0.21696-0.08467 0.11642 0 0.17992 0.08996l0.26458 0.34396q-0.17462 0.21167-0.41804 0.37042-0.24342 0.15346-0.52387 0.254-0.27517 0.10054-0.5715 0.14817-0.29633 0.05292-0.58737 0.05292-0.55562 0-1.0266-0.18521-0.46566-0.1905-0.80962-0.55033-0.33867-0.36512-0.52916-0.89958-0.1905-0.53446-0.1905-1.2277 0-0.56092 0.16933-1.0477 0.17462-0.48683 0.49742-0.84137 0.32279-0.35983 0.78846-0.56092 0.46566-0.20637 1.0477-0.20637zm0.02117 0.69321q-0.68262 0-1.0742 0.39687-0.39158 0.39158-0.48683 1.0901h2.9157q0-0.32808-0.08996-0.59796-0.08996-0.27517-0.26458-0.47096-0.17462-0.20108-0.42862-0.30692-0.24871-0.11112-0.5715-0.11112z"/>
    <path d="m96.003 74.901v-5.3604h0.53975q0.15346 0 0.21167 0.05821 0.05821 0.05821 0.07937 0.20108l0.0635 0.83608q0.27516-0.56091 0.67733-0.87312 0.40746-0.3175 0.9525-0.3175 0.22225 0 0.40216 0.05292 0.17992 0.04762 0.33337 0.13758l-0.12171 0.70379q-0.03704 0.13229-0.16404 0.13229-0.07408 0-0.22754-0.04763-0.15346-0.05292-0.42862-0.05292-0.49212 0-0.8255 0.28575-0.32808 0.28575-0.55033 0.83079v3.4131z"/>
    <path d="m101.89 74.986q-0.635 0-0.97896-0.35454-0.33866-0.35454-0.33866-1.0213v-3.2808h-0.64558q-0.08467 0-0.14288-0.04762-0.05821-0.05292-0.05821-0.15875v-0.37571l0.87842-0.11112 0.21696-1.6563q0.0106-0.07937 0.0688-0.127 0.0582-0.05292 0.14816-0.05292h0.47625v1.8468h1.5346v0.68262h-1.5346v3.2173q0 0.33866 0.16404 0.50271 0.16404 0.16404 0.42333 0.16404 0.14817 0 0.254-0.03704 0.11113-0.04233 0.1905-0.08996 0.0794-0.04762 0.13229-0.08467 0.0582-0.04233 0.10055-0.04233 0.0741 0 0.13229 0.08996l0.27516 0.44979q-0.24341 0.22754-0.58737 0.35983-0.34396 0.127-0.70908 0.127z"/>
    <path d="m105.26 69.541v5.3604h-0.94192v-5.3604zm0.21166-1.6827q0 0.13758-0.0582 0.25929-0.0529 0.11642-0.14816 0.21167-0.09 0.08996-0.21167 0.14288-0.12171 0.05292-0.25929 0.05292t-0.25929-0.05292q-0.11642-0.05292-0.21167-0.14288-0.09-0.09525-0.14287-0.21167-0.0529-0.12171-0.0529-0.25929t0.0529-0.25929q0.0529-0.127 0.14287-0.21696 0.0952-0.09525 0.21167-0.14817 0.12171-0.05292 0.25929-0.05292t0.25929 0.05292 0.21167 0.14817q0.0953 0.08996 0.14816 0.21696 0.0582 0.12171 0.0582 0.25929z"/>
    <path d="m109.09 69.456q0.58737 0 1.0583 0.19579 0.47625 0.19579 0.80433 0.55562 0.33337 0.35983 0.508 0.87312 0.17991 0.508 0.17991 1.1377 0 0.635-0.17991 1.143-0.17463 0.508-0.508 0.86783-0.32808 0.35983-0.80433 0.55562-0.47096 0.1905-1.0583 0.1905-0.58738 0-1.0636-0.1905-0.47096-0.19579-0.80433-0.55562-0.33338-0.35983-0.51329-0.86783-0.17992-0.508-0.17992-1.143 0-0.62971 0.17992-1.1377 0.17991-0.51329 0.51329-0.87312 0.33337-0.35983 0.80433-0.55562 0.47624-0.19579 1.0636-0.19579zm0 4.7837q0.79375 0 1.1853-0.52916 0.39158-0.53446 0.39158-1.487 0-0.95779-0.39158-1.4922-0.39158-0.53446-1.1853-0.53446-0.40217 0-0.6985 0.13758-0.29633 0.13758-0.49742 0.39687-0.19579 0.25929-0.29633 0.64029-0.0953 0.37571-0.0953 0.85196 0 0.47625 0.0953 0.85196 0.10054 0.37571 0.29633 0.635 0.20109 0.254 0.49742 0.39158t0.6985 0.13758z"/>
    <path d="m112.81 74.901v-5.3604h0.56091q0.20109 0 0.254 0.19579l0.0741 0.58208q0.34925-0.38629 0.77787-0.62441 0.43391-0.23812 1.0001-0.23812 0.43921 0 0.77258 0.14817 0.33867 0.14287 0.56092 0.41275 0.22754 0.26458 0.34395 0.64029 0.11642 0.37571 0.11642 0.83079v3.4131h-0.94191v-3.4131q0-0.60854-0.28046-0.94191-0.27517-0.33866-0.84667-0.33866-0.41804 0-0.78316 0.20108-0.35983 0.20108-0.66675 0.54504v3.9476z"/>
    <path d="m121.77 70.424q-0.0635 0.11642-0.19579 0.11642-0.0794 0-0.17991-0.05821-0.10054-0.05821-0.24871-0.127-0.14288-0.07408-0.34396-0.13229-0.20108-0.0635-0.47625-0.0635-0.23812 0-0.42862 0.0635-0.1905 0.05821-0.32808 0.16404-0.13229 0.10583-0.20638 0.24871-0.0688 0.13758-0.0688 0.30162 0 0.20637 0.11642 0.34396 0.12171 0.13758 0.3175 0.23812t0.4445 0.17992q0.2487 0.07408 0.50799 0.16404 0.26459 0.08467 0.51329 0.1905 0.24871 0.10583 0.4445 0.26458 0.19579 0.15875 0.31221 0.39158 0.12171 0.22754 0.12171 0.55033 0 0.37042-0.13229 0.68791-0.13229 0.31221-0.39159 0.54504-0.25929 0.22754-0.63499 0.35983-0.37571 0.13229-0.86783 0.13229-0.56092 0-1.016-0.17992-0.45508-0.18521-0.77258-0.47096l0.22225-0.35983q0.0423-0.06879 0.10054-0.10583 0.0582-0.03704 0.15346-0.03704 0.0953 0 0.20108 0.07408 0.10583 0.07408 0.254 0.16404 0.15346 0.08996 0.36512 0.16404 0.21696 0.07408 0.53975 0.07408 0.27517 0 0.48154-0.06879 0.20638-0.07408 0.34396-0.19579 0.13758-0.12171 0.20108-0.28046 0.0688-0.15875 0.0688-0.33867 0-0.22225-0.12171-0.36512-0.11641-0.14817-0.3122-0.24871-0.19579-0.10583-0.44979-0.17992-0.24871-0.07937-0.51329-0.16404-0.25929-0.08467-0.51329-0.1905-0.24871-0.11112-0.4445-0.27517t-0.3175-0.40216q-0.11642-0.24342-0.11642-0.58737 0-0.30692 0.127-0.58737 0.127-0.28575 0.37042-0.49742 0.24341-0.21696 0.59795-0.34396 0.35455-0.127 0.80963-0.127 0.52916 0 0.9472 0.16933 0.42333 0.16404 0.73025 0.45508z"/>
   </g>
  </g>
  <circle cx="21.356" cy="28.448" r="4.2779" fill="#df691a" stroke-width=".20652"/>
  <g>
   <path d="m18.985 28.531 1.7072 1.7138 3.1518-3.1639" fill-opacity="0" stroke="#fff" stroke-linecap="round" stroke-linejoin="round" stroke-width="1.1126"/>
   <rect x="20.637" y="34.269" width=".95631" height="9.6449" fill="#b6b6b6" stroke="#fff" stroke-linecap="round" stroke-linejoin="round" stroke-width=".41101"/>
   <circle cx="21.356" cy="49.615" r="4.2779" fill="none" stroke="#b6b6b6" stroke-width=".507"/>
   <path d="m18.985 49.698 1.7072 1.7138 3.1518-3.1639" fill-opacity="0" stroke="#fff" stroke-linecap="round" stroke-linejoin="round" stroke-width="1.1126"/>
   <rect x="20.724" y="55.368" width=".95631" height="9.6449" fill="#b6b6b6" stroke="#fff" stroke-linecap="round" stroke-linejoin="round" stroke-width=".41101"/>
   <circle cx="21.356" cy="70.781" r="4.2779" fill="none" stroke="#b6b6b6" stroke-width=".507"/>
  </g>
 </g>
</svg>
